<svg width="98" height="18" viewBox="0 0 98 18" fill="none" xmlns="http://www.w3.org/2000/svg">
<path d="M7.65763 0.968537C7.98604 0.371169 8.61366 0 9.29535 0C10.7167 0 11.6178 1.52373 10.9331 2.76925L3.50929 16.2728C3.18088 16.8702 2.55327 17.2414 1.87158 17.2414C0.45024 17.2414 -0.450884 15.7176 0.233858 14.4721L7.65763 0.968537Z" fill="#1B1B1B"/>
<path d="M14.2927 0.968537C14.6211 0.371169 15.2487 0 15.9304 0C17.3518 0 18.2529 1.52373 17.5681 2.76925L10.1444 16.2728C9.81595 16.8702 9.18834 17.2414 8.50665 17.2414C7.08531 17.2414 6.18419 15.7176 6.86893 14.4721L14.2927 0.968537Z" fill="#1B1B1B"/>
<path d="M20.9278 0.968537C21.2562 0.371169 21.8838 0 22.5655 0C23.9868 0 24.888 1.52373 24.2032 2.76925L16.7794 16.2728C16.451 16.8702 15.8234 17.2414 15.1417 17.2414C13.7204 17.2414 12.8193 15.7176 13.504 14.4721L20.9278 0.968537Z" fill="#1B1B1B"/>
<path d="M27.5628 0.968537C27.8913 0.371169 28.5189 0 29.2006 0C30.6219 0 31.523 1.52373 30.8383 2.76925L23.4145 16.2728C23.0861 16.8702 22.4585 17.2414 21.7768 17.2414C20.3555 17.2414 19.4543 15.7176 20.1391 14.4721L27.5628 0.968537Z" fill="#1B1B1B"/>
<path d="M34.1979 0.968537C34.5263 0.371169 35.1539 0 35.8356 0C37.257 0 38.1581 1.52373 37.4734 2.76925L30.0496 16.2728C29.7212 16.8702 29.0935 17.2414 28.4119 17.2414C26.9905 17.2414 26.0894 15.7176 26.7741 14.4721L34.1979 0.968537Z" fill="#1B1B1B"/>
<path d="M40.833 0.968537C41.1614 0.371169 41.789 0 42.4707 0C43.892 0 44.7932 1.52373 44.1084 2.76925L36.6847 16.2728C36.3562 16.8702 35.7286 17.2414 35.0469 17.2414C33.6256 17.2414 32.7245 15.7176 33.4092 14.4721L40.833 0.968537Z" fill="#1B1B1B"/>
<path d="M47.4681 0.968537C47.7965 0.371169 48.4241 0 49.1058 0C50.5271 0 51.4282 1.52373 50.7435 2.76925L43.3197 16.2728C42.9913 16.8702 42.3637 17.2414 41.682 17.2414C40.2607 17.2414 39.3595 15.7176 40.0443 14.4721L47.4681 0.968537Z" fill="#1B1B1B"/>
<path d="M54.1031 0.968537C54.4315 0.371169 55.0592 0 55.7408 0C57.1622 0 58.0633 1.52373 57.3786 2.76925L49.9548 16.2728C49.6264 16.8702 48.9988 17.2414 48.3171 17.2414C46.8957 17.2414 45.9946 15.7176 46.6794 14.4721L54.1031 0.968537Z" fill="#1B1B1B"/>
<path d="M60.7382 0.968537C61.0666 0.371169 61.6942 0 62.3759 0C63.7973 0 64.6984 1.52373 64.0136 2.76925L56.5899 16.2728C56.2615 16.8702 55.6338 17.2414 54.9521 17.2414C53.5308 17.2414 52.6297 15.7176 53.3144 14.4721L60.7382 0.968537Z" fill="#1B1B1B"/>
<path d="M67.3733 0.968537C67.7017 0.371169 68.3293 0 69.011 0C70.4323 0 71.3335 1.52373 70.6487 2.76925L63.2249 16.2728C62.8965 16.8702 62.2689 17.2414 61.5872 17.2414C60.1659 17.2414 59.2648 15.7176 59.9495 14.4721L67.3733 0.968537Z" fill="#1B1B1B"/>
<path d="M74.0083 0.968537C74.3368 0.371169 74.9644 0 75.6461 0C77.0674 0 77.9685 1.52373 77.2838 2.76925L69.86 16.2728C69.5316 16.8702 68.904 17.2414 68.2223 17.2414C66.8009 17.2414 65.8998 15.7176 66.5846 14.4721L74.0083 0.968537Z" fill="#1B1B1B"/>
<path d="M80.6434 0.968537C80.9718 0.371169 81.5994 0 82.2811 0C83.7025 0 84.6036 1.52373 83.9188 2.76925L76.4951 16.2728C76.1667 16.8702 75.539 17.2414 74.8574 17.2414C73.436 17.2414 72.5349 15.7176 73.2196 14.4721L80.6434 0.968537Z" fill="#1B1B1B"/>
<path d="M87.2785 0.968537C87.6069 0.371169 88.2345 0 88.9162 0C90.3375 0 91.2387 1.52373 90.5539 2.76925L83.1301 16.2728C82.8017 16.8702 82.1741 17.2414 81.4924 17.2414C80.0711 17.2414 79.17 15.7176 79.8547 14.4721L87.2785 0.968537Z" fill="#1B1B1B"/>
<path d="M93.9136 0.968537C94.242 0.371169 94.8696 0 95.5513 0C96.9726 0 97.8737 1.52373 97.189 2.76925L89.7652 16.2728C89.4368 16.8702 88.8092 17.2414 88.1275 17.2414C86.7062 17.2414 85.805 15.7176 86.4898 14.4721L93.9136 0.968537Z" fill="#1B1B1B"/>
</svg>
