<svg width="13" height="13" viewBox="0 0 13 13" fill="none" xmlns="http://www.w3.org/2000/svg">
<path d="M11.8906 4.34855C11.7135 4.34855 11.5652 4.28855 11.4456 4.16855C11.326 4.04855 11.2452 3.90021 11.2031 3.72355C11.151 3.43188 11.0573 3.16105 10.9219 2.91105C10.7865 2.66105 10.6198 2.43188 10.4219 2.22355L9.5625 3.67667C9.45833 3.84334 9.34646 4.02563 9.22688 4.22355C9.10729 4.42146 8.97958 4.59334 8.84375 4.73917C8.69792 4.89542 8.51562 4.97355 8.29688 4.97355C8.07812 4.97355 7.89062 4.90063 7.73438 4.7548C7.57812 4.60896 7.5 4.42667 7.5 4.20792C7.5 3.98917 7.57812 3.80167 7.73438 3.64542C7.88021 3.49959 8.05479 3.36938 8.25812 3.2548C8.46146 3.14021 8.64625 3.03084 8.8125 2.92667L10.2656 2.0673C10.0469 1.85896 9.80208 1.68709 9.53125 1.55167C9.26042 1.41625 8.96875 1.3225 8.65625 1.27042C8.5 1.24959 8.375 1.17396 8.28125 1.04355C8.1875 0.913129 8.14062 0.764795 8.14062 0.598545C8.14062 0.421462 8.19792 0.27292 8.3125 0.15292C8.42708 0.0329203 8.5625 -0.0164546 8.71875 0.00479536C9.67708 0.129795 10.5 0.528337 11.1875 1.20042C11.875 1.8725 12.2969 2.6873 12.4531 3.6448C12.4844 3.82188 12.4427 3.98334 12.3281 4.12917C12.2135 4.275 12.0677 4.34813 11.8906 4.34855ZM6.3125 12.4735C5.4375 12.4735 4.61729 12.3069 3.85187 11.9735C3.08646 11.6402 2.41979 11.1898 1.85188 10.6223C1.28396 10.0548 0.833333 9.38813 0.5 8.6223C0.166667 7.85646 0 7.03605 0 6.16105C0 4.86938 0.356875 3.6975 1.07062 2.64542C1.78437 1.59334 2.74 0.822504 3.9375 0.33292C4.08333 0.280837 4.23438 0.262504 4.39062 0.27792C4.54688 0.293337 4.67708 0.34292 4.78125 0.42667C4.86458 0.499587 4.92979 0.601254 4.97687 0.73167C5.02396 0.862087 5.04729 1.03125 5.04688 1.23917C5.06771 2.06209 5.23438 2.84605 5.54688 3.59105C5.85938 4.33605 6.30729 5 6.89062 5.58292C7.47396 6.16584 8.14062 6.61375 8.89062 6.92667C9.64062 7.23959 10.4271 7.40625 11.25 7.42667C11.4688 7.42667 11.6354 7.445 11.75 7.48167C11.8646 7.51834 11.9583 7.57813 12.0312 7.66105C12.1146 7.76521 12.1694 7.90063 12.1956 8.0673C12.2219 8.23396 12.2087 8.385 12.1562 8.52042C11.6771 9.71834 10.9062 10.6767 9.84375 11.3954C8.78125 12.1142 7.60417 12.4735 6.3125 12.4735Z" fill="white"/>
</svg>
