<svg width="15" height="12" viewBox="0 0 15 12" fill="none" xmlns="http://www.w3.org/2000/svg">
<path d="M14.4872 0C14.8435 0 15.0657 0.288281 14.9827 0.646875L12.6952 10.6345C12.6146 10.9908 12.2607 11.2814 11.9067 11.2814H0.512844C0.156594 11.2814 -0.0655935 10.9908 0.0173752 10.6345L2.30488 0.646875C2.3855 0.287813 2.73941 0 3.09331 0H14.4872ZM9.25316 5.84016C9.41206 5.59359 9.39472 5.27391 9.19691 5.06391L5.70097 1.34297C5.46425 1.09172 5.05409 1.08891 4.7855 1.34063C4.51691 1.59469 4.49253 2.00203 4.72925 2.25375L7.64441 5.35453V5.42297L3.00566 8.7825C2.72488 8.985 2.67378 9.39281 2.88847 9.69094C3.10597 9.98859 3.50862 10.0645 3.78941 9.85922L8.93347 6.16547C9.10691 6.04359 9.20675 5.93531 9.25316 5.84016ZM7.50753 8.58891C7.35345 8.58766 7.20518 8.64764 7.09531 8.75566C6.98544 8.86369 6.92296 9.01092 6.92159 9.165C6.92196 9.24149 6.93742 9.31716 6.96709 9.38766C6.99676 9.45816 7.04005 9.52211 7.09449 9.57585C7.14892 9.62959 7.21343 9.67205 7.28431 9.70081C7.35519 9.72957 7.43104 9.74406 7.50753 9.74344H10.276C10.3525 9.74406 10.4283 9.72957 10.4992 9.70081C10.5701 9.67205 10.6346 9.62959 10.689 9.57585C10.7434 9.52211 10.7867 9.45816 10.8164 9.38766C10.8461 9.31716 10.8615 9.24149 10.8619 9.165C10.8605 9.01092 10.7981 8.86369 10.6882 8.75566C10.5783 8.64764 10.43 8.58766 10.276 8.58891H7.50753Z" fill="#AF0000"/>
</svg>
