<svg width="54" height="48" viewBox="0 0 54 48" fill="none" xmlns="http://www.w3.org/2000/svg">
<path d="M0 24C0 15.5992 0 11.3988 1.6349 8.19014C3.073 5.36771 5.36771 3.073 8.19014 1.6349C11.3988 0 15.5992 0 24 0H30C38.4008 0 42.6012 0 45.8099 1.6349C48.6323 3.073 50.927 5.36771 52.3651 8.19014C54 11.3988 54 15.5992 54 24C54 32.4008 54 36.6012 52.3651 39.8099C50.927 42.6323 48.6323 44.927 45.8099 46.3651C42.6012 48 38.4008 48 30 48H24C15.5992 48 11.3988 48 8.19014 46.3651C5.36771 44.927 3.073 42.6323 1.6349 39.8099C0 36.6012 0 32.4008 0 24Z" fill="#343434"/>
<path d="M30.24 14H26.346C24.582 14 23.184 14 22.091 14.148C20.965 14.3 20.054 14.62 19.336 15.341C18.617 16.062 18.298 16.977 18.147 18.107C18 19.205 18 20.608 18 22.379V28.217C18 29.725 18.92 31.017 20.227 31.559C20.16 30.649 20.16 29.374 20.16 28.312V23.302C20.16 22.021 20.16 20.916 20.278 20.032C20.405 19.084 20.691 18.176 21.425 17.439C22.159 16.702 23.064 16.415 24.008 16.287C24.888 16.169 25.988 16.169 27.265 16.169H30.335C31.611 16.169 32.709 16.169 33.59 16.287C33.3261 15.6133 32.8653 15.0347 32.2678 14.6268C31.6702 14.2188 30.9635 14.0004 30.24 14Z" fill="white"/>
<path d="M21.6001 23.397C21.6001 20.671 21.6001 19.308 22.4441 18.461C23.2871 17.614 24.6441 17.614 27.3601 17.614H30.2401C32.9551 17.614 34.3131 17.614 35.1571 18.461C36.0011 19.308 36.0001 20.671 36.0001 23.397V28.217C36.0001 30.943 36.0001 32.306 35.1571 33.153C34.3131 34 32.9551 34 30.2401 34H27.3601C24.6451 34 23.2871 34 22.4441 33.153C21.6001 32.306 21.6001 30.943 21.6001 28.217V23.397Z" fill="white"/>
</svg>
