<svg width="15" height="15" viewBox="0 0 15 15" fill="none" xmlns="http://www.w3.org/2000/svg">
<path d="M1.60693 5.89289V9.10718H5.08908V5.89289H1.60693ZM1.60693 9.91075V11.384C1.60693 11.9168 1.81859 12.4277 2.19534 12.8045C2.57208 13.1812 3.08306 13.3929 3.61586 13.3929H5.08908V9.91075H1.60693ZM5.89265 13.3929H9.10693V9.91075H5.89265V13.3929ZM9.9105 13.3929H11.3837C11.9165 13.3929 12.4275 13.1812 12.8042 12.8045C13.181 12.4277 13.3926 11.9168 13.3926 11.384V9.91075H9.9105V13.3929ZM13.3926 9.10718V5.89289H9.9105V9.10718H13.3926ZM13.3926 5.08932V3.61611C13.3926 3.08331 13.181 2.57233 12.8042 2.19558C12.4275 1.81883 11.9165 1.60718 11.3837 1.60718H9.9105V5.08932H13.3926ZM9.10693 1.60718H5.89265V5.08932H9.10693V1.60718ZM9.10693 5.89289V9.10718H5.89265V5.89289H9.10693Z" fill="#AF0000"/>
</svg>
