<svg width="12" height="12" viewBox="0 0 12 12" fill="none" xmlns="http://www.w3.org/2000/svg">
<path d="M10.5098 7.215C10.5098 7.875 10.4045 8.48 10.1413 9.085C9.87819 9.69 9.50977 10.185 9.03608 10.68C8.5624 11.12 8.03608 11.505 7.4045 11.725C7.14135 11.835 6.82556 11.945 6.50977 12L6.66766 11.945C6.66766 11.945 7.82556 11.23 8.08871 9.69C8.19398 8.315 7.08871 7.71 7.08871 7.71C7.08871 7.71 6.50977 8.48 5.72029 8.48C4.45713 8.48 4.66766 6.28 4.66766 6.28C4.66766 6.28 2.77292 7.325 2.77292 9.525C2.77292 10.9 4.14134 11.945 4.14134 11.945C3.98345 11.89 3.77292 11.835 3.61503 11.78C2.98345 11.56 2.45713 11.175 1.98345 10.735C1.50977 10.295 1.14134 9.745 0.878187 9.14C0.615029 8.535 0.509766 7.93 0.509766 7.27C0.509766 5.125 2.93082 3.035 2.93082 3.035C2.93082 3.035 3.14134 4.685 4.35187 4.685C6.5624 4.685 5.77292 1 5.77292 1C5.77292 1 7.77292 2.21 8.35187 5.51C9.45713 5.345 9.35187 3.86 9.35187 3.86C9.35187 3.86 10.5098 5.455 10.5098 7.215Z" fill="#AF0000"/>
</svg>
