<svg width="15" height="15" viewBox="0 0 15 15" fill="none" xmlns="http://www.w3.org/2000/svg">
<path opacity="0.2" d="M8.4005 1.5V2.8C11.2741 3.151 13.3098 5.7445 12.9563 8.598C12.8118 9.74784 12.2854 10.817 11.4603 11.6364C10.6351 12.4557 9.55843 12.9785 8.4005 13.122V14.422C12.0007 14.032 14.5862 10.821 14.1935 7.2525C13.8531 4.2235 11.4508 1.825 8.4005 1.5ZM7.09135 1.5C5.80839 1.617 4.59742 2.1175 3.60247 2.93L4.53851 3.931C5.27164 3.346 6.15531 2.969 7.09135 2.839V1.539M2.67952 3.8855C1.85812 4.87001 1.35407 6.07718 1.23291 7.35H2.54206C2.66643 6.427 3.03299 5.5495 3.61556 4.815L2.67952 3.8855ZM1.23946 8.65C1.37037 9.924 1.87439 11.1265 2.68607 12.1145L3.61556 11.185C3.03747 10.4503 2.66895 9.57471 2.5486 8.65H1.23946ZM4.51233 12.1405L3.60247 13.031C4.59413 13.8516 5.80797 14.3626 7.09135 14.5V13.2C6.16014 13.0805 5.27841 12.7146 4.53851 12.1405H4.51233ZM5.50728 11.12L6.10949 8.5915L4.14577 6.9145L6.73134 6.674L7.74593 4.3275L8.76052 6.7L11.3461 6.9145L9.38236 8.5915L9.98457 11.12L7.74593 9.781L5.50728 11.12Z" fill="white"/>
</svg>
