<svg width="20" height="20" viewBox="0 0 20 20" fill="none" xmlns="http://www.w3.org/2000/svg">
<path d="M3.88818 3H15.5451V5.77435H3.88818V3ZM11.4652 10.8801V17H7.96812V10.8801H11.4652Z" fill="#E50404"/>
<path d="M9.7169 7.37134C5.45046 7.37134 2 8.2223 2 9.25976C2 10.2972 5.46211 11.1482 9.7169 11.1482C13.9717 11.1482 17.4338 10.2972 17.4338 9.25976C17.4338 8.2223 13.9717 7.37134 9.7169 7.37134ZM9.7169 10.2856C5.77685 10.2856 2.58285 9.70273 2.58285 8.98C2.58285 8.25727 5.77685 7.67442 9.7169 7.67442C13.657 7.67442 16.851 8.25727 16.851 8.98C16.851 9.70273 13.657 10.2856 9.7169 10.2856Z" fill="#E50404"/>
<path d="M9.7168 9.85424C10.323 9.85424 10.9058 9.84258 11.4653 9.80761V5.03992H7.96826V9.80761C8.5278 9.83092 9.11064 9.85424 9.7168 9.85424Z" fill="#E50404"/>
</svg>
