<svg width="13" height="13" viewBox="0 0 13 13" fill="none" xmlns="http://www.w3.org/2000/svg">
<path d="M2.52734 1.94995H10.1044V3.75328H2.52734V1.94995ZM7.45241 7.07202V11.05H5.1793V7.07202H7.45241Z" fill="#9F9F9F"/>
<path d="M6.31579 4.79138C3.5426 4.79138 1.2998 5.3445 1.2998 6.01886C1.2998 6.69321 3.55018 7.24634 6.31579 7.24634C9.0814 7.24634 11.3318 6.69321 11.3318 6.01886C11.3318 5.3445 9.0814 4.79138 6.31579 4.79138ZM6.31579 6.68564C3.75476 6.68564 1.67866 6.30679 1.67866 5.83701C1.67866 5.36724 3.75476 4.98838 6.31579 4.98838C8.87682 4.98838 10.9529 5.36724 10.9529 5.83701C10.9529 6.30679 8.87682 6.68564 6.31579 6.68564Z" fill="#9F9F9F"/>
<path d="M6.31575 6.40531C6.70976 6.40531 7.08861 6.39773 7.4523 6.375V3.276H5.1792V6.375C5.5429 6.39016 5.92175 6.40531 6.31575 6.40531Z" fill="#9F9F9F"/>
</svg>
