<svg width="15" height="15" viewBox="0 0 15 15" fill="none" xmlns="http://www.w3.org/2000/svg">
<path d="M13.75 5.10123V5.14686C13.75 5.68436 13.75 5.95373 13.6206 6.17373C13.4912 6.39373 13.2556 6.52436 12.7856 6.78623L12.29 7.06123C12.6312 5.90623 12.7456 4.66498 12.7875 3.60373L12.7937 3.46561L12.795 3.43311C13.2019 3.57436 13.4306 3.67998 13.5731 3.87748C13.75 4.12311 13.75 4.44936 13.75 5.10123ZM1.25 5.10123V5.14686C1.25 5.68436 1.25 5.95373 1.37938 6.17373C1.50875 6.39373 1.74437 6.52436 2.21438 6.78623L2.71062 7.06123C2.36875 5.90623 2.25437 4.66498 2.2125 3.60373L2.20625 3.46561L2.20563 3.43311C1.79813 3.57436 1.56938 3.67998 1.42687 3.87748C1.25 4.12311 1.25 4.44998 1.25 5.10123Z" fill="#BC8A62"/>
<path fill-rule="evenodd" clip-rule="evenodd" d="M7.49998 1.25002C8.61498 1.25002 9.53311 1.34814 10.2356 1.46689C10.9475 1.58689 11.3031 1.64689 11.6006 2.01314C11.8981 2.37939 11.8819 2.77502 11.8506 3.56627C11.7431 6.28439 11.1569 9.67877 7.96873 9.97877V12.1875H8.86248C9.00692 12.1876 9.14686 12.2377 9.25852 12.3293C9.37019 12.4209 9.44667 12.5484 9.47498 12.69L9.59373 13.2813H11.25C11.3743 13.2813 11.4935 13.3307 11.5814 13.4186C11.6693 13.5065 11.7187 13.6257 11.7187 13.75C11.7187 13.8743 11.6693 13.9936 11.5814 14.0815C11.4935 14.1694 11.3743 14.2188 11.25 14.2188H3.74998C3.62566 14.2188 3.50643 14.1694 3.41853 14.0815C3.33062 13.9936 3.28123 13.8743 3.28123 13.75C3.28123 13.6257 3.33062 13.5065 3.41853 13.4186C3.50643 13.3307 3.62566 13.2813 3.74998 13.2813H5.40623L5.52498 12.69C5.55329 12.5484 5.62978 12.4209 5.74144 12.3293C5.85311 12.2377 5.99305 12.1876 6.13748 12.1875H7.03123V9.97877C3.84373 9.67877 3.25748 6.28377 3.14998 3.56627C3.11811 2.77502 3.10248 2.37877 3.39998 2.01314C3.69686 1.64689 4.05248 1.58689 4.76436 1.46689C5.66863 1.31877 6.58367 1.24622 7.49998 1.25002ZM8.09498 3.87439L8.03373 3.76439C7.79623 3.33752 7.67748 3.12502 7.49998 3.12502C7.32248 3.12502 7.20373 3.33752 6.96623 3.76439L6.90498 3.87439C6.83748 3.99564 6.80373 4.05564 6.75123 4.09564C6.69811 4.13564 6.63248 4.15064 6.50123 4.18002L6.38248 4.20752C5.92123 4.31189 5.69061 4.36377 5.63561 4.54002C5.58061 4.71627 5.73811 4.90064 6.05248 5.26814L6.13373 5.36314C6.22311 5.46752 6.26811 5.51939 6.28811 5.58439C6.30811 5.64939 6.30123 5.71877 6.28811 5.85814L6.27561 5.98502C6.22811 6.47564 6.20436 6.72127 6.34748 6.83002C6.49123 6.93877 6.70748 6.83939 7.13936 6.64064L7.25061 6.58939C7.37373 6.53314 7.43498 6.50502 7.49998 6.50502C7.56498 6.50502 7.62623 6.53314 7.74936 6.58939L7.86061 6.64064C8.29248 6.84002 8.50873 6.93877 8.65248 6.83002C8.79623 6.72127 8.77186 6.47564 8.72436 5.98502L8.71186 5.85814C8.69873 5.71877 8.69186 5.64939 8.71186 5.58439C8.73186 5.51939 8.77686 5.46752 8.86623 5.36314L8.94748 5.26814C9.26186 4.90064 9.41936 4.71689 9.36436 4.54002C9.30936 4.36377 9.07873 4.31189 8.61748 4.20752L8.49873 4.18002C8.36748 4.15064 8.30186 4.13627 8.24873 4.09564C8.19623 4.05564 8.16248 3.99564 8.09498 3.87439Z" fill="#BC8A62"/>
</svg>
