<svg width="16" height="16" viewBox="0 0 16 16" fill="none" xmlns="http://www.w3.org/2000/svg">
<path d="M0 5.71429V10H4.64286V5.71429H0ZM0 11.0714V13.0357C0 13.7461 0.282206 14.4274 0.784535 14.9298C1.28686 15.4321 1.96817 15.7143 2.67857 15.7143H4.64286V11.0714H0ZM5.71429 15.7143H10V11.0714H5.71429V15.7143ZM11.0714 15.7143H13.0357C13.7461 15.7143 14.4274 15.4321 14.9298 14.9298C15.4321 14.4274 15.7143 13.7461 15.7143 13.0357V11.0714H11.0714V15.7143ZM15.7143 10V5.71429H11.0714V10H15.7143ZM15.7143 4.64286V2.67857C15.7143 1.96817 15.4321 1.28686 14.9298 0.784535C14.4274 0.282206 13.7461 0 13.0357 0H11.0714V4.64286H15.7143ZM10 0H5.71429V4.64286H10V0ZM10 5.71429V10H5.71429V5.71429H10Z" fill="#9F9F9F"/>
</svg>
