<svg width="15" height="15" viewBox="0 0 15 15" fill="none" xmlns="http://www.w3.org/2000/svg">
<path d="M13.5 8.43421C13.5 9.22368 13.3684 9.94737 13.0395 10.6711C12.7105 11.3947 12.25 11.9868 11.6579 12.5789C11.0658 13.1053 10.4079 13.5658 9.61842 13.8289C9.28947 13.9605 8.89474 14.0921 8.5 14.1579L8.69737 14.0921C8.69737 14.0921 10.1447 13.2368 10.4737 11.3947C10.6053 9.75 9.22368 9.02632 9.22368 9.02632C9.22368 9.02632 8.5 9.94737 7.51316 9.94737C5.93421 9.94737 6.19737 7.31579 6.19737 7.31579C6.19737 7.31579 3.82895 8.56579 3.82895 11.1974C3.82895 12.8421 5.53947 14.0921 5.53947 14.0921C5.3421 14.0263 5.07895 13.9605 4.88158 13.8947C4.0921 13.6316 3.43421 13.1711 2.84211 12.6447C2.25 12.1184 1.78947 11.4605 1.46053 10.7368C1.13158 10.0132 1 9.28947 1 8.5C1 5.93421 4.02632 3.43421 4.02632 3.43421C4.02632 3.43421 4.28947 5.4079 5.80263 5.4079C8.56579 5.4079 7.57895 1 7.57895 1C7.57895 1 10.0789 2.44737 10.8026 6.39474C12.1842 6.19737 12.0526 4.42105 12.0526 4.42105C12.0526 4.42105 13.5 6.32895 13.5 8.43421Z" fill="#AF0000"/>
</svg>
